<?xml version="1.0" encoding="utf-8"?>
<!-- Generated by IcoMoon.io -->
<!DOCTYPE svg PUBLIC "-//W3C//DTD SVG 1.1//EN" "http://www.w3.org/Graphics/SVG/1.1/DTD/svg11.dtd">
<svg version="1.1" xmlns="http://www.w3.org/2000/svg" xmlns:xlink="http://www.w3.org/1999/xlink" width="2400" height="1024" viewBox="0 0 2400 1024"><g id="icomoon-ignore">
</g>
<path fill="rgb(102, 223, 158)" d="M212.631 216.141c-6.029-13.271-9.65-27.746-9.65-43.425 0-18.096 2.417-34.979 7.242-53.075 4.825-16.892 12.067-33.775 20.504-47.046 8.446-14.475 19.3-25.329 30.154-33.775 12.067-8.446 25.329-13.271 38.6-13.271 15.679 0 30.154 3.621 43.425 10.854s24.125 16.892 33.775 27.746c9.65 12.067 16.892 25.329 21.717 41.017s8.446 32.571 8.446 49.454c0 36.192-8.446 67.55-25.329 92.879-16.892 26.542-39.804 38.6-66.346 38.6-14.475 0-28.95-3.621-42.221-9.65s-25.329-14.475-36.192-25.329c-9.65-8.446-18.096-20.504-24.125-34.979zM233.136 312.65c-14.475-13.271-28.95-24.125-45.842-33.775l-7.242-3.621-1.204 8.446c-4.825 22.921-14.475 50.667-28.95 84.442-13.271 33.775-28.95 69.967-45.842 107.363s-32.571 77.2-48.25 115.8c-15.679 39.804-28.95 77.2-37.396 113.392-9.65 34.979-12.067 62.725-9.65 83.229 3.621 20.504 12.067 38.6 27.746 53.075 13.271 10.854 30.154 21.717 51.871 32.571 21.717 9.65 42.221 16.892 62.725 21.717l9.65 2.417-2.417-9.65c-3.621-12.067-2.417-32.571 4.825-62.725s16.892-65.142 28.95-103.742c12.067-38.6 25.329-78.404 39.804-119.421s27.746-78.404 38.6-112.188c9.65-27.746 14.475-51.871 14.475-73.579s-4.825-42.221-16.892-61.521c-8.446-14.475-20.504-28.95-34.979-42.221zM784.399 474.283c-4.825 15.679-12.067 36.192-21.717 59.104-8.446 22.921-18.096 47.046-27.746 73.579-9.65 25.329-19.3 53.075-27.746 80.821-9.65 27.746-18.096 54.279-25.329 78.404s-12.067 48.25-15.679 68.754c-3.621 20.504-3.621 37.396-1.204 49.454l1.204 8.446-8.446-2.417c-18.096-3.621-36.192-10.854-54.279-19.3s-33.775-19.3-48.25-31.367c-20.504-16.892-30.154-41.017-28.95-72.375-20.504 33.775-42.221 60.317-63.929 77.2-51.871 41.017-103.742 43.425-141.138 4.825-18.096-19.3-26.542-51.871-27.746-100.121-1.204-27.746 2.417-60.317 10.854-94.092s19.3-68.754 33.775-103.742c14.475-34.979 31.367-68.754 50.667-101.325s41.017-61.521 62.725-86.85c22.921-25.329 47.046-45.842 71.171-61.521 25.329-15.679 50.667-22.921 77.2-22.921 25.329 0 44.629 8.446 60.317 24.125 10.854 12.067 19.3 25.329 24.125 41.017 3.621-8.446 7.242-16.892 10.854-25.329 4.825-13.271 9.65-22.921 12.067-28.95l2.417-4.825 4.825 2.417c13.271 6.029 26.542 14.475 37.396 24.125 12.067 9.65 21.717 20.504 28.95 31.367 10.854 15.679 16.892 33.775 18.096 53.075s-3.621 45.842-14.475 78.404zM637.241 416.383c-3.621-4.825-7.242-6.029-12.067-6.029-7.242 0-15.679 4.825-25.329 14.475-10.854 9.65-21.717 24.125-33.775 39.804-12.067 16.892-24.125 36.192-34.979 56.696-12.067 20.504-21.717 41.017-30.154 61.521s-15.679 39.804-21.717 57.9c-4.825 18.096-8.446 31.367-8.446 42.221s4.825 10.854 8.446 10.854c3.621 0 9.65-2.417 20.504-12.067 9.65-8.446 19.3-21.717 30.154-37.396s22.921-33.775 34.979-54.279c12.067-20.504 24.125-43.425 34.979-66.346 7.242-13.271 14.475-27.746 21.717-43.425s14.475-30.154 21.717-45.842c0-7.242-2.417-13.271-6.029-18.096zM1224.696 276.458c-27.746 0-59.104 12.067-90.471 36.192-26.542 19.3-50.667 47.046-73.579 83.229 0-9.65 0-18.096-2.417-26.542-3.621-14.475-8.446-27.746-16.892-39.804-16.892-22.921-41.017-41.017-73.579-55.492l-7.242-3.621-1.204 8.446c-2.417 16.892-9.65 42.221-22.921 75.996-13.271 32.571-28.95 69.967-45.842 110.975s-33.775 83.229-50.667 126.663c-16.892 43.425-30.154 84.442-39.804 123.042-8.446 30.154-9.65 54.279-6.029 73.579s10.854 34.979 22.921 47.046c10.854 10.854 25.329 22.921 44.629 32.571 19.3 10.854 37.396 18.096 53.075 21.717l7.242 2.417v-7.242c0-8.446 2.417-21.717 6.029-38.6s9.65-36.192 15.679-59.104c7.242-21.717 15.679-47.046 25.329-73.579s21.717-54.279 33.775-80.821c12.067-26.542 24.125-50.667 37.396-73.579s25.329-43.425 37.396-61.521c12.067-16.892 22.921-31.367 32.571-41.017 12.067-13.271 18.096-13.271 19.3-13.271s3.621 0 3.621 7.242c0 8.446-3.621 21.717-9.65 41.017-7.242 19.3-15.679 41.017-26.542 66.346-10.854 24.125-21.717 50.667-32.571 75.996-10.854 26.542-21.717 51.871-30.154 74.792-12.067 32.571-16.892 60.317-14.475 82.025 2.417 22.921 12.067 41.017 28.95 54.279 13.271 12.067 28.95 22.921 48.25 31.367 18.096 8.446 36.192 14.475 54.279 19.3l10.854 2.417-3.621-9.65c-1.204-3.621-2.417-13.271 1.204-31.367 2.417-15.679 8.446-34.979 15.679-56.696s15.679-45.842 26.542-72.375c10.854-26.542 21.717-54.279 32.571-82.025 22.921-53.075 41.017-101.325 56.696-145.963s22.921-83.229 22.921-112.188c0-30.154-7.242-55.492-20.504-75.996-16.892-25.329-38.6-36.192-68.754-36.192zM1781.997 142.562c-13.271-7.242-26.542-12.067-41.017-15.679-21.717-6.029-44.629-6.029-67.55 0s-44.629 19.3-63.929 38.6c-41.017 38.6-77.2 85.646-108.567 139.925-31.367 53.075-59.104 109.771-80.821 168.875-21.717 57.9-38.6 117.013-49.454 176.117-10.854 57.9-16.892 112.188-16.892 161.642 0 31.367 3.621 57.9 12.067 78.404 8.446 21.717 22.921 39.804 43.425 53.075 7.242 4.825 16.892 9.65 27.746 13.271s22.921 7.242 33.775 9.65c12.067 2.417 22.921 3.621 34.979 4.825 4.825 0 10.854 1.204 15.679 1.204 6.029 0 13.271 0 18.096-1.204l21.717-3.621-15.679-16.892c-8.446-8.446-13.271-21.717-18.096-39.804-3.621-19.3-6.029-42.221-6.029-68.754 0-53.075 6.029-108.567 18.096-167.671s28.95-117.013 50.667-172.496c21.717-55.492 47.046-108.567 75.996-158.021 28.95-48.25 59.104-90.471 91.675-123.042 7.242-7.242 15.679-14.475 25.329-21.717 9.65-6.029 16.892-10.854 24.125-13.271l19.3-7.242-14.475-13.271c-7.242-9.65-18.096-16.892-30.154-22.921zM2369.452 213.733c-8.446-21.717-22.921-39.804-44.629-53.075-7.242-4.825-16.892-9.65-27.746-13.271s-21.717-7.242-33.775-9.65c-12.067-2.417-22.921-3.621-34.979-4.825s-22.921-1.204-32.571 0l-25.329 2.417 16.892 18.096c8.446 8.446 13.271 21.717 18.096 39.804 3.621 19.3 6.029 42.221 6.029 68.754 0 53.075-6.029 108.567-18.096 167.671s-28.95 117.013-50.667 172.496c-21.717 55.492-47.046 108.567-75.996 158.021-28.95 48.25-59.104 90.471-91.675 121.838-7.242 7.242-15.679 14.475-25.329 21.717-9.65 6.029-16.892 10.854-24.125 13.271l-18.096 6.029 13.271 13.271c8.446 8.446 18.096 15.679 31.367 22.921s26.542 12.067 41.017 15.679c9.65 2.417 20.504 3.621 31.367 3.621 12.067 0 24.125-1.204 36.192-4.825 22.921-6.029 44.629-19.3 63.929-38.6 39.804-38.6 77.2-85.646 108.567-139.925 31.367-53.075 59.104-109.771 80.821-168.875 21.717-57.9 38.6-117.013 49.454-176.117 10.854-57.9 16.892-113.392 16.892-161.642 1.204-27.746-2.417-54.279-10.854-74.792z"></path>
</svg>
